<svg fill="none" height="64" viewBox="0 0 64 64" width="64" xmlns="http://www.w3.org/2000/svg"><path clip-rule="evenodd" d="m7.99992 10.6666h47.99998c1.4728 0 2.6667-1.19386 2.6667-2.66662s-1.1939-2.66667-2.6667-2.66667h-47.99998c-1.47276 0-2.66667 1.19391-2.66667 2.66667s1.19391 2.66662 2.66667 2.66662zm50.66668 42.6667c0 1.4728-1.1939 2.6667-2.6667 2.6667h-47.99998c-1.47276 0-2.66667-1.1939-2.66667-2.6667 0-1.4727 1.19391-2.6667 2.66667-2.6667h47.99998c1.4728 0 2.6667 1.194 2.6667 2.6667zm-50.66668-24h47.99998c1.4728 0 2.6667 1.1939 2.6667 2.6667 0 1.4727-1.1939 2.6666-2.6667 2.6666h-47.99998c-1.47276 0-2.66667-1.1939-2.66667-2.6666 0-1.4728 1.19391-2.6667 2.66667-2.6667z" fill="#000" fill-rule="evenodd"/></svg>