<?xml version="1.0" encoding="utf-8"?>
<!-- Generator: Adobe Illustrator 28.0.0, SVG Export Plug-In . SVG Version: 6.00 Build 0)  -->
<svg version="1.1" id="Layer_2_00000078033328071490055730000014183008858881744017_"
	 xmlns="http://www.w3.org/2000/svg" xmlns:xlink="http://www.w3.org/1999/xlink" x="0px" y="0px" viewBox="0 0 128 128"
	 style="enable-background:new 0 0 128 128;" xml:space="preserve">
<style type="text/css">
	.st0{fill:#FBF6EE;}
</style>
<g id="Layer_1-2">
	<path class="st0" d="M64,128L64,128C28.7,128,0,99.3,0,64v0C0,28.7,28.7,0,64,0h0c35.3,0,64,28.7,64,64v0C128,99.3,99.3,128,64,128
		z"/>
	<path d="M64.1,119.4c-29.9,1-57.7-25.5-55.7-59.2C10.1,32.1,33.9,8.1,63.9,8c31.1-0.1,56,25.8,55.8,56.2
		C119.4,95.2,93.7,119.9,64.1,119.4z M11.6,63.6c0.1,29.2,22.7,52.1,51.2,52.6c30.4,0.6,53.5-23.8,53.6-52.1
		C116.4,34.9,93,11.2,64,11.2C35.2,11.3,11.8,34.2,11.6,63.6L11.6,63.6z"/>
	<path d="M64,106c-0.4-5.4-0.7-10.7-1.2-16c-1-9.1-5.5-16.2-13.2-21.1c-4.8-3.1-10.2-4-15.8-4.4c-3.4-0.2-6.9-0.5-10.3-1
		c1.7-0.1,3.3-0.1,5-0.2c5.8-0.4,11.6-0.4,17-2.8c8.9-3.8,14.8-10.5,16.8-20.1c0.8-4,0.9-8.2,1.3-12.3c0.2-2.2,0.3-4.5,0.5-6.8
		c0.4,4.9,0.8,9.7,1.1,14.6C66.1,50,76.4,61,90.4,62.4c4,0.4,8.1,0.7,12.2,1c0.7,0,1.3,0.1,2,0.4c-3.4,0.3-6.8,0.5-10.2,0.8
		c-5.1,0.4-10.1,1.1-14.6,3.7c-7.8,4.4-12.6,11-14,19.8C64.8,94,64.6,100,64,106L64,106z"/>
</g>
</svg>
